<svg xmlns="http://www.w3.org/2000/svg" viewBox="0 0 25 26.5"><defs><style>.a{font-size:10px;font-family:AzonixRegular, Azonix;}.a,.b{fill:#2e2e2e;}</style></defs><title>ace-hearts</title><text class="a" transform="translate(0 8.5)">a</text><path class="b" d="M15.8,10.8l.8-.9A4.9,4.9,0,0,1,22,8.5a4.6,4.6,0,0,1,3,4.6,7.6,7.6,0,0,1-2.5,5.8c-1.7,1.6-3.4,3.2-5.2,4.7L15.8,25l-4.3-3.8c-1-1-2.1-1.9-3.1-3a6.9,6.9,0,0,1-1.7-6.1A4.2,4.2,0,0,1,9.9,8.4,4.9,4.9,0,0,1,15,9.8Z" transform="translate(0 1.5)"/></svg>