<svg xmlns="http://www.w3.org/2000/svg" viewBox="0 0 25 26.5"><defs><style>.a{font-size:10px;font-family:AzonixRegular, Azonix;}.a,.b{fill:#2e2e2e;}</style></defs><title>four-clubs</title><text class="a" transform="translate(0 8.5)">4</text><path class="b" d="M21.9,25H9.8c0-.2,0-.2.2-.3a7.9,7.9,0,0,0,4.8-3.8,8.3,8.3,0,0,0,.6-2.1,3.8,3.8,0,0,0,.1-1,.1.1,0,0,1,.1-.1A4.7,4.7,0,0,1,9.4,20a4.4,4.4,0,0,1-2.3-5.7,4.4,4.4,0,0,1,5.6-2.7,4.4,4.4,0,0,1-1.4-3.7,4.3,4.3,0,0,1,1.8-3.4,4.6,4.6,0,0,1,6.1.5,4.7,4.7,0,0,1-.2,6.6l1.1-.2a4.4,4.4,0,0,1,4.8,3.8,4.4,4.4,0,0,1-3.4,5.1,5.5,5.5,0,0,1-1.8.1,4.9,4.9,0,0,1-3.3-2.3c-.1-.1-.1-.3-.2-.4h0a3.4,3.4,0,0,0,.1,1,6.3,6.3,0,0,0,1,2.7,6.9,6.9,0,0,0,2.9,2.7l1.6.6C22,24.8,21.9,24.9,21.9,25Z" transform="translate(0 1.5)"/></svg>