<svg xmlns="http://www.w3.org/2000/svg" viewBox="0 0 25 26.5"><defs><style>.a{font-size:10px;font-family:AzonixRegular, Azonix;}.a,.b{fill:#2e2e2e;}</style></defs><title>two-spades</title><text class="a" transform="translate(0 8.5)">2</text><path class="b" d="M18.4,25H14.3a10.2,10.2,0,0,0,1.5-5.7.8.8,0,0,1-.4.4,4.7,4.7,0,0,1-5,.4,4.8,4.8,0,0,1-2.7-4.3,5,5,0,0,1,2.1-4.4l3.3-2.8a10.5,10.5,0,0,0,2.7-3.2,3.1,3.1,0,0,0,.5-1h.1a10.1,10.1,0,0,0,2.7,3.7l3.6,3.1A6.5,6.5,0,0,1,24.3,13a5.1,5.1,0,0,1,0,5.2,4.8,4.8,0,0,1-4.4,2.5,4.7,4.7,0,0,1-2.8-1.2l-.3-.2C17,21.4,17.2,23.3,18.4,25Z" transform="translate(0 1.5)"/></svg>